<?xml version="1.0" standalone="no"?>
<!DOCTYPE svg PUBLIC "-//W3C//DTD SVG 20010904//EN"
 "http://www.w3.org/TR/2001/REC-SVG-20010904/DTD/svg10.dtd">
<svg version="1.0" xmlns="http://www.w3.org/2000/svg"
 width="260.000000pt" height="260.000000pt" viewBox="0 0 260.000000 260.000000"
 preserveAspectRatio="xMidYMid meet">
<metadata>
Created by potrace 1.11, written by Peter Selinger 2001-2013
</metadata>
<g transform="translate(0.000000,260.000000) scale(0.100000,-0.100000)"
fill="#000000" stroke="none">
<path d="M0 1300 l0 -1300 1300 0 1300 0 0 1300 0 1300 -1300 0 -1300 0 0
-1300z m905 781 c83 -38 129 -107 129 -191 -1 -67 -20 -107 -75 -154 -84 -72
-214 -72 -298 0 -48 41 -66 73 -75 129 -15 93 54 196 150 225 50 14 127 11
169 -9z m774 -6 c84 -20 172 -68 217 -118 20 -22 50 -69 68 -106 29 -62 31
-72 31 -181 -1 -94 -5 -125 -22 -168 -25 -62 -71 -125 -122 -167 l-37 -29 62
-21 c138 -46 221 -137 259 -282 55 -210 -40 -431 -225 -521 -108 -53 -173 -62
-467 -62 l-263 0 0 835 0 835 218 0 c158 0 234 -4 281 -15z m-669 -1135 l0
-520 -200 0 -200 0 0 520 0 520 200 0 200 0 0 -520z"/>
<path d="M1290 1660 l0 -332 188 4 c218 4 250 14 326 99 58 64 80 131 80 234
0 102 -35 187 -101 245 -70 62 -113 72 -315 78 l-178 4 0 -332z"/>
<path d="M1290 875 l0 -355 188 0 c103 0 213 4 245 10 91 15 171 56 227 117
60 65 80 125 80 233 0 105 -21 167 -75 228 -83 92 -197 121 -482 122 l-183 0
0 -355z"/>
</g>
</svg>
